<svg width="207" height="208" viewBox="0 0 207 208" fill="none" xmlns="http://www.w3.org/2000/svg">
<path d="M125.079 207.121C117.692 207.138 110.603 204.242 105.383 199.076C96.6038 190.372 96.6038 176.29 105.383 167.586C112.544 160.531 124.13 160.531 131.291 167.586C137.126 173.346 137.132 182.69 131.304 188.457C131.3 188.461 131.296 188.466 131.291 188.47L129.278 186.466C134.013 181.768 134.013 174.173 129.278 169.476C123.207 163.49 113.38 163.49 107.309 169.476C99.5869 177.103 99.583 189.475 107.3 197.107C107.303 197.11 107.306 197.113 107.309 197.115C117.104 206.766 132.952 206.766 142.747 197.115L196.504 143.983C206.268 134.303 206.268 118.638 196.504 108.957C188.774 101.345 176.27 101.345 168.539 108.957C162.483 114.958 162.483 124.671 168.539 130.671C173.302 135.36 181.011 135.348 185.758 130.643L187.728 132.589C181.9 138.356 172.446 138.362 166.612 132.602C166.607 132.598 166.603 132.593 166.599 132.589C159.46 125.512 159.46 114.06 166.599 106.982C175.405 98.3049 189.652 98.3049 198.459 106.982C209.322 117.734 209.322 135.15 198.459 145.901L144.702 199.033C139.507 204.199 132.447 207.108 125.079 207.121Z" fill="#FAB911"/>
<path d="M24.4853 107.51C18.509 107.511 12.7777 105.163 8.55504 100.983C-2.30753 90.2311 -2.30753 72.8155 8.55504 62.064L62.2835 8.93138C73.1615 -1.80493 90.7819 -1.80493 101.66 8.93138C110.423 17.6414 110.423 31.7114 101.66 40.4214C94.4991 47.477 82.9127 47.477 75.7517 40.4214C69.9195 34.6534 69.9195 25.3057 75.7517 19.5378L77.7213 21.4845C72.9743 26.1726 72.9714 33.7762 77.7145 38.4683C77.7166 38.4703 77.7189 38.4727 77.7213 38.475C83.7924 44.4606 93.6194 44.4606 99.6905 38.475C107.399 30.8422 107.399 18.4822 99.6905 10.8494C89.887 1.2027 74.0323 1.22192 64.2529 10.8924L10.5101 64.0104C0.745919 73.6914 0.745919 89.3552 10.5101 99.0362C18.2409 106.648 30.7443 106.648 38.4749 99.0362C44.5389 93.039 44.5389 83.3195 38.4749 77.3223C33.7224 72.6437 26.0373 72.6437 21.2848 77.3223L19.3152 75.3756C25.151 69.6112 34.6087 69.6112 40.4445 75.3756C47.5989 82.4355 47.6081 93.8912 40.4651 100.962C40.4583 100.969 40.4515 100.976 40.4445 100.983C36.2157 105.171 30.4719 107.52 24.4853 107.51Z" fill="#FAB911"/>
<path d="M81.9645 207.121C74.5823 207.135 67.4993 204.239 62.2835 199.076L8.52608 145.944C-2.33649 135.193 -2.33649 117.777 8.52608 107.025C17.3386 98.3635 31.574 98.3635 40.3865 107.025C47.525 114.103 47.525 125.554 40.3865 132.632C34.5595 138.399 25.1058 138.405 19.271 132.645C19.2664 132.641 19.2619 132.637 19.2573 132.632L21.2703 130.643C26.0226 135.322 33.7081 135.322 38.4605 130.643C44.5165 124.642 44.5165 114.929 38.4605 108.929C30.7194 101.338 18.2273 101.357 10.5101 108.972C0.745922 118.653 0.745922 134.317 10.5101 143.997L64.2675 197.13C74.0624 206.78 89.9103 206.78 99.7049 197.13C107.427 189.502 107.431 177.131 99.7138 169.498C99.7109 169.496 99.708 169.493 99.7049 169.49C93.634 163.504 83.8068 163.504 77.7357 169.49C72.9889 174.178 72.9858 181.781 77.7289 186.473C77.7312 186.476 77.7336 186.477 77.7357 186.48L75.7661 188.427C69.9342 182.659 69.9342 173.312 75.7661 167.543C82.9271 160.488 94.5137 160.488 101.674 167.543C110.454 176.248 110.454 190.329 101.674 199.033C96.458 204.218 89.3626 207.129 81.9645 207.121Z" fill="#FAB911"/>
<path d="M182.558 107.51C176.58 107.522 170.843 105.172 166.628 100.983C159.481 93.9085 159.481 82.45 166.628 75.3756C172.467 69.6192 181.918 69.6192 187.757 75.3756L185.758 77.3223C181.005 72.6437 173.321 72.6437 168.568 77.3223C162.504 83.3195 162.504 93.039 168.568 99.0362C176.285 106.669 188.803 106.673 196.524 99.0447C196.527 99.0419 196.53 99.039 196.533 99.0362C206.297 89.3551 206.297 73.6914 196.533 64.0104L142.79 10.8923C132.999 1.23376 117.144 1.23376 107.353 10.8923C99.6444 18.5251 99.6444 30.8851 107.353 38.5179C113.415 44.483 123.216 44.483 129.278 38.5179C134.013 33.8206 134.013 26.2246 129.278 21.5274L131.248 19.5808C137.083 25.3401 137.088 34.6839 131.261 40.4509C131.257 40.4555 131.252 40.4599 131.248 40.4646C124.105 47.5359 112.515 47.5449 105.36 40.485C105.353 40.4783 105.346 40.4713 105.34 40.4646C96.5763 31.7543 96.5763 17.6843 105.34 8.9743C116.221 -1.75413 133.835 -1.75413 144.716 8.9743L198.474 62.1069C209.337 72.8586 209.337 90.274 198.474 101.026C194.254 105.196 188.524 107.53 182.558 107.51Z" fill="#FAB911"/>
<path d="M170.343 172.496C170.093 172.49 169.85 172.411 169.643 172.27L103.531 127.738L36.9689 172.283C36.4581 172.606 35.7943 172.541 35.3558 172.124C34.9408 171.682 34.8756 171.015 35.1971 170.502L79.4921 103.564L35.2102 37.0777C34.8887 36.564 34.9541 35.8965 35.369 35.4555C35.8074 35.0381 36.4712 34.9726 36.982 35.2959L103.094 79.8282L169.656 35.2959C170.166 34.9726 170.83 35.0381 171.269 35.4555C171.684 35.8965 171.749 36.564 171.428 37.0777L127.119 104.029L171.401 170.515C171.762 171.023 171.724 171.713 171.309 172.177C171.041 172.408 170.695 172.523 170.343 172.496ZM40.9225 41.0537L82.0838 102.846C82.3573 103.28 82.3573 103.834 82.0838 104.268L40.843 166.606L102.83 125.132C103.265 124.851 103.823 124.851 104.258 125.132L165.702 166.539L124.541 104.747C124.267 104.313 124.267 103.759 124.541 103.324L165.782 40.9738L103.782 82.4477C103.35 82.7228 102.799 82.7228 102.367 82.4477L40.9225 41.0537Z" fill="#FAB911"/>
</svg>
